<?xml version="1.0" encoding="utf-8"?>
<!-- Generator: Adobe Illustrator 16.0.0, SVG Export Plug-In . SVG Version: 6.00 Build 0)  -->
<!DOCTYPE svg PUBLIC "-//W3C//DTD SVG 1.1//EN" "http://www.w3.org/Graphics/SVG/1.1/DTD/svg11.dtd">
<svg version="1.1" id="Layer_2" xmlns="http://www.w3.org/2000/svg" xmlns:xlink="http://www.w3.org/1999/xlink" x="0px" y="0px"
	 width="362.4px" height="474.641px" viewBox="195.1 156.7 362.4 474.641" enable-background="new 195.1 156.7 362.4 474.641"
	 xml:space="preserve">
<g>
	<path fill="#ED2224" d="M225.3,192.3c-0.5-8.5,1.2-12.3,1.4-12.6c0.2-0.3-0.4-0.5,2.9,0.2c3.4,0.7,8.9,3.2,15.2,6.9
		c8.9,5.2,21.4,17,33.9,31.2c3.3,3.7,2.2,2.3,5.2,6.3c2.6-0.5,5.5-1.2,9.1-1.7s9.3-1,12.6-1.3c-1.8-2.5-2.6-4.1-7.3-9.9
		c-14.6-17.5-29.7-32.8-43.8-41.1c-7.1-4.2-13.9-7.6-21-9.1s-16.2-0.3-21.6,6.3s-6.4,15-5.7,25.8"/>
	<path fill="#FFFFFF" d="M229.2,192.1c-0.1-1-0.1-2-0.1-2.9c0-2.9,0.3-4.9,0.6-6.1c0.1-0.6,0.3-1,0.4-1.2v-0.1l0,0l-1.2-0.6l1.2,0.7
		v-0.1l-1.2-0.6l1.2,0.7l-2.5-1.4l2.4,1.6l0.1-0.2l-2.5-1.4l2.4,1.6l-3-1.9l2.8,2.3c0.1-0.2,0.2-0.3,0.3-0.3l-3-1.9l2.8,2.3l0,0l0,0
		c0.4-0.5,0.6-1.1,0.7-1.4c0-0.1,0.1-0.2,0.1-0.2l-2.3-0.7l2.3,0.7l0,0l-2.3-0.7l2.3,0.7l-3.6-1l3.3,1.8c0.2-0.4,0.3-0.7,0.3-0.7
		l-3.6-1l3.3,1.8L227,180l2.5,2.9c0.4-0.3,0.7-0.7,0.8-1l-3.4-1.9l2.5,2.9l-2.5-2.9l1.7,3.5c0.3-0.1,0.6-0.3,0.9-0.6L227,180
		l1.7,3.5l-1.6-3.4l0.6,3.7c0.3,0,0.6-0.1,1-0.3l-1.6-3.4l0.6,3.7L227,180v3.4c0.1,0,0.3,0,0.5,0L227,180v3.4v-2.5l-0.2,2.5
		c0,0,0.1,0,0.2,0v-2.5l-0.2,2.5l0.1-1.2l-0.1,1.2l0,0l0.1-1.2l-0.1,1.2v-0.1v0.1l0,0v-0.1v0.1c0,0,0.2,0,0.6,0.1s0.8,0.2,1.5,0.3
		l0,0c1.2,0.3,3.3,1,5.7,2.1s5.3,2.6,8.3,4.3l0,0c4,2.4,9.2,6.5,14.9,11.7c5.7,5.3,11.8,11.7,18,18.7l0,0c1.7,1.9,2.3,2.5,2.7,3
		c0.2,0.2,0.4,0.5,0.7,0.9c0.3,0.5,0.8,1.1,1.6,2.1l1.5,2l2.4-0.5c2.8-0.5,5.5-1.2,8.9-1.7l0,0c1.7-0.2,4-0.5,6.2-0.7
		c2.3-0.2,4.5-0.4,6.2-0.5l7-0.5l-4.1-5.7c-0.4-0.6-0.801-1.1-1.2-1.7c-0.601-0.9-1.3-1.9-2.3-3.2c-1-1.3-2.3-3-4.1-5.2l0,0l0,0
		c-7.3-8.8-14.9-17.1-22.4-24.3c-7.5-7.2-15-13.3-22.4-17.6c-7.2-4.2-14.4-7.9-22.1-9.6l0,0c-2-0.4-4.1-0.7-6.3-0.7
		c-3.4,0-6.8,0.5-10.2,1.9c-3.3,1.3-6.5,3.4-9,6.5l0,0c-2.6,3.2-4.3,6.7-5.3,10.6c-1,3.8-1.4,7.9-1.4,12.2c0,1.9,0.1,3.8,0.2,5.8
		c0.1,2.2,2,3.8,4.2,3.7c2.2-0.1,3.8-2,3.7-4.2c-0.1-1.8-0.2-3.6-0.2-5.3c0-3.9,0.3-7.2,1.1-10.2c0.8-2.9,2-5.4,3.8-7.6l0,0
		c1.6-1.9,3.5-3.2,5.8-4.1c2.2-0.9,4.8-1.3,7.3-1.3c1.6,0,3.2,0.2,4.7,0.5l0,0c6.4,1.3,12.8,4.5,19.8,8.6c6.7,3.9,13.8,9.6,21,16.5
		c7.2,6.9,14.6,15,21.8,23.7l0,0c2.3,2.8,3.6,4.5,4.6,5.9c0.5,0.7,0.9,1.3,1.3,1.9c0.4,0.6,0.8,1.2,1.3,1.9l3.2-2.3l-0.3-3.9
		c-1.7,0.1-4,0.3-6.3,0.5c-2.3,0.2-4.7,0.5-6.6,0.7l0,0l0,0c-3.9,0.5-6.9,1.3-9.3,1.8l0.7,3.9l3.2-2.3c-0.7-1-1.2-1.7-1.6-2.2
		c-0.3-0.4-0.5-0.7-0.8-1c-0.4-0.5-0.7-0.8-1.1-1.3s-1-1.1-1.9-2.1l0,0c-6.3-7.2-12.7-13.8-18.6-19.3s-11.4-9.9-16.3-12.7l0,0
		c-3.2-1.9-6.3-3.5-9-4.7c-2.8-1.2-5.2-2.1-7.3-2.6l0,0c-0.9-0.2-1.5-0.3-2-0.4c-0.2,0-0.5-0.1-0.7-0.1c-0.2,0-0.5-0.1-0.8-0.1
		c-0.2,0-0.4,0-0.7,0.1c-0.2,0-0.6,0.1-0.9,0.3c-0.3,0.1-0.7,0.3-1,0.6c-0.3,0.2-0.6,0.5-0.7,0.8c-0.3,0.5-0.5,0.9-0.6,1.1l-0.1,0.2
		l0,0l3,0.9l-3-1v0.1l3,0.9l-3-1l3.5,1.1l-2.8-2.3c-0.4,0.4-0.6,0.9-0.6,1.2l3.5,1.1l-2.8-2.3l3.1,2.5l-3-2.5
		c-0.1,0.2-0.2,0.3-0.3,0.4c-0.1,0.2-0.2,0.3-0.3,0.4c-0.1,0.2-0.2,0.4-0.3,0.7c-0.3,0.9-0.7,2.1-1,3.8c-0.3,1.7-0.5,3.9-0.5,6.7
		c0,1,0,2.2,0.1,3.4c0.1,2.2,2,3.8,4.2,3.7C227.7,196.1,229.3,194.2,229.2,192.1z"/>
	<rect x="195.1" y="217.4" fill="#ED2224" width="362.4" height="362.4"/>
	<path fill="#ED2224" d="M206.2,193.5c0.7,10.8,3.4,24.5,8.5,42.4c20.2,71.2,80.7,214,150,313.7c2.399,3.601,6.8,5.101,10.899,3.7
		c4.101-1.399,6.7-5.3,6.5-9.5c0-0.2,0-0.5,0-0.7c-0.199-1.6-0.8-3.1-1.699-4.399c-67.4-96.9-128.101-240-147.3-308
		c-4.9-17.2-7.3-29.8-7.8-38.4"/>
	<path fill="#FFFFFF" d="M202.3,193.7c0.7,11.2,3.5,25.1,8.6,43.2c10.2,35.9,30.4,89.5,56.8,146.8c26.4,57.2,58.899,118,93.7,168.1
		l3.199-2.3l-3.3,2.2c2.601,3.8,6.8,6,11.2,6c1.4,0,2.9-0.2,4.3-0.7c2.8-0.9,5.101-2.7,6.7-4.9c1.6-2.199,2.5-5,2.5-7.899
		c0-0.2,0-0.5,0-0.7l0,0c0-0.1,0-0.5-0.1-1l0,0c-0.301-2.2-1.101-4.4-2.5-6.2l-3.2,2.3l3.2-2.3c-33.5-48.2-65.4-108-91.3-164.3
		c-13-28.1-24.4-55.3-33.8-79.8c-9.4-24.4-16.8-46-21.6-62.8c-2.4-8.5-4.2-15.9-5.5-22.1c-1.3-6.3-2-11.4-2.2-15.4
		c-0.1-2.2-2-3.8-4.2-3.7c-2.2,0.1-3.8,2-3.7,4.2c0.3,4.5,1,10,2.3,16.5c1.3,6.5,3.1,14.1,5.6,22.7c4.9,17.2,12.3,38.9,21.8,63.5
		C279.5,369,326.3,467.9,377,541l0,0l0,0c0.6,0.8,0.9,1.7,1,2.6l0,0l0,0l0.7-0.1l-0.7,0.1l0,0l0.7-0.1l-0.7,0.1c0,0,0,0.101,0,0.4
		l0,0l0,0c0,0.1,0,0.2,0,0.3c0,1.2-0.4,2.3-1,3.3c-0.7,0.9-1.6,1.601-2.7,2c-0.6,0.2-1.2,0.301-1.8,0.301c-1.8,0-3.6-0.9-4.6-2.5
		l0,0l0,0c-34.4-49.601-66.8-110-93-166.9c-26.2-56.9-46.4-110.3-56.4-145.6c-5-17.8-7.7-31.3-8.3-41.6c-0.1-2.2-2-3.8-4.2-3.7
		S202.2,191.5,202.3,193.7z"/>
	<path fill="#ED2224" d="M424.8,626.2c15.7-11.101-9.8-54.9-14.6-67c-2.5-6.3,12.399-25,4.899-36.2c-7.399-11-15.8-1.3-31.699-2.9
		c-7.101-0.699-9.2-3.8-16.7-2c-2.9,0.7-6.4,3.101-9.5,5.101l0,0c-3.101,2.1-6.3,4-8.101,6.399c-4.699,6.2-2.699,9.301-4.899,16.101
		c-4.9,15.2-17.2,19-10.101,30.2c7.2,11.3,30.4,5.3,35.101,10.1c9.1,9.2,38.899,50.2,55.399,40.3
		C424.6,626.3,424.7,626.2,424.8,626.2z"/>
	<path fill="#FFFFFF" d="M424.8,626.2l2.3,3.3c2.5-1.7,4.2-4.2,5.301-6.8c1-2.7,1.399-5.5,1.399-8.5c0-5-1.1-10.3-2.7-15.8
		c-2.399-8.2-6.1-16.601-9.5-23.9c-1.699-3.6-3.3-7-4.699-9.8c-1.4-2.8-2.5-5.2-3.101-6.8L413.4,558.1l0.399-0.1l0,0l-0.399,0.2
		l0.399-0.101l0,0l0,0l0,0l0,0l0,0c0,0,0-0.1,0-0.3c0-0.3,0.101-0.899,0.2-1.5c0.3-1.2,0.8-2.899,1.5-4.7c1-2.8,2.4-6.1,3.5-9.6
		s2-7.2,2-11c0-1.7-0.2-3.3-0.6-5c-0.4-1.7-1.101-3.3-2.2-4.8c-0.8-1.2-1.7-2.3-2.601-3.2c-1.399-1.4-3-2.4-4.699-3
		c-1.7-0.6-3.4-0.9-5-0.9c-3.2,0-6.101,0.801-9.101,1.4s-6.2,1.2-9.8,1.2c-1.1,0-2.2-0.1-3.3-0.2c-2.3-0.2-4-0.8-5.9-1.3
		c-0.899-0.3-2-0.6-3.1-0.8c-1.101-0.2-2.4-0.4-3.8-0.4c-1.601,0-3.4,0.2-5.301,0.7c-2.1,0.5-3.899,1.5-5.699,2.5
		c-1.801,1-3.5,2.2-5,3.1l2.199,3.4l-2.1-3.4l0,0h-0.1H354.8c-1.5,1-3.2,2-4.7,3.2c-1.6,1.2-3.1,2.4-4.399,4.1l0,0
		c-1.4,1.801-2.3,3.5-3,5.101c-0.5,1.2-0.8,2.399-1,3.5c-0.3,1.6-0.4,3.1-0.601,4.399c-0.199,1.4-0.399,2.7-0.899,4.301
		c-1.7,5.3-4.4,9-7,12.699c-1.3,1.801-2.601,3.601-3.601,5.5c-0.5,1-1,2-1.3,3.2c-0.3,1.101-0.5,2.4-0.5,3.601
		c0,1.399,0.2,2.8,0.7,4.3c0.5,1.399,1.2,2.8,2.1,4.3c1.2,1.9,2.801,3.4,4.5,4.6c3,2.101,6.4,3.2,9.801,3.801
		c2.6,0.5,5.1,0.699,7.6,0.899c3.7,0.2,7.2,0.3,9.8,0.601c1.3,0.1,2.4,0.3,3.101,0.5c0.3,0.1,0.6,0.199,0.699,0.3l0.101,0.1l0,0
		l0.3-0.3l-0.3,0.3l0,0l0.3-0.3l-0.3,0.3c0.899,0.9,2.1,2.3,3.6,4c2.601,2.9,5.8,6.8,9.5,11c5.5,6.2,12,13,18.601,18.4
		c3.3,2.7,6.699,5.1,10.199,6.8c3.4,1.7,7,2.9,10.601,2.9c2.6,0,5.3-0.7,7.7-2.101l0,0l0,0c0.1-0.1,0.199-0.2,0.399-0.2l0,0l0,0
		L424.8,626.2l-2.2-3.3L422.4,623l2.1,3.4l-2.1-3.4c-1.101,0.7-2.2,0.9-3.601,1c-1.399,0-3.2-0.4-5.2-1.2
		c-3.399-1.399-7.399-4-11.5-7.399c-6.1-5.101-12.3-11.7-17.6-17.7c-2.7-3-5.1-5.9-7.2-8.3c-2.1-2.5-3.899-4.5-5.399-6
		c-0.7-0.7-1.4-1.101-2.101-1.5c-1.399-0.7-2.7-1-4.2-1.301c-2.5-0.399-5.199-0.6-8.1-0.699c-4.3-0.2-8.8-0.4-12.5-1.301
		c-1.8-0.399-3.5-1-4.8-1.8s-2.3-1.7-3-2.8c-0.601-1-1-1.8-1.2-2.5s-0.3-1.2-0.3-1.7s0.1-0.899,0.2-1.399c0.3-0.9,0.8-2,1.6-3.2
		c1.2-1.9,3.1-4.2,5-7.2c1.9-2.9,3.9-6.4,5.3-10.8c0.601-2,1-3.7,1.2-5.2c0.2-1.1,0.3-2.1,0.4-2.9c0.199-1.3,0.3-2.199,0.699-3.199
		c0.4-1,0.9-2.101,2.101-3.601l0,0c0.5-0.7,1.5-1.6,2.8-2.5c1.3-0.899,2.8-1.899,4.4-3l-2.2-3.3l2.1,3.4l0,0l0,0l0,0
		c1.601-1,3.2-2.101,4.7-2.9c1.5-0.9,2.8-1.5,3.6-1.6c1.4-0.4,2.5-0.5,3.4-0.5c0.8,0,1.5,0.1,2.2,0.199
		c1.1,0.2,2.3,0.601,3.899,1.101c1.601,0.5,3.5,1,5.9,1.2c1.4,0.1,2.8,0.199,4.2,0.199c4.399,0,8.2-0.699,11.399-1.399
		c3.2-0.7,5.7-1.2,7.5-1.2c0.601,0,1.101,0.1,1.601,0.2c0.7,0.2,1.2,0.399,1.899,0.899c0.7,0.5,1.4,1.301,2.2,2.5
		c0.5,0.801,0.8,1.5,1.101,2.4c0.199,0.9,0.399,1.9,0.399,3c0,1.9-0.399,4.1-1,6.4c-0.899,3.5-2.399,7.1-3.7,10.5
		c-0.699,1.699-1.3,3.399-1.699,5c-0.5,1.6-0.801,3.199-0.801,4.899c0,1,0.101,2.101,0.601,3.2c0.5,1.3,1.2,2.8,2,4.5
		c1.399,3,3.2,6.7,5.1,10.7c2.9,6.1,6,13.1,8.3,19.8c1.2,3.4,2.2,6.7,2.9,9.8c0.7,3.101,1.1,6,1.1,8.5c0,2.3-0.3,4.2-0.899,5.601
		c-0.601,1.399-1.3,2.399-2.5,3.199L424.8,626.2l-2.2-3.3L424.8,626.2z"/>
	
		<rect x="346.258" y="499.987" transform="matrix(0.5333 0.8459 -0.8459 0.5333 595.9792 -57.0667)" fill="#FFFFFF" width="6.9" height="23.198"/>
	
		<rect x="337.08" y="481.595" transform="matrix(0.5333 0.8459 -0.8459 0.5333 576.1381 -57.8868)" fill="#FFFFFF" width="6.9" height="23.199"/>
</g>
</svg>
